<svg xmlns="http://www.w3.org/2000/svg" viewBox="0 0 220.14 38">
<defs><style>.cls-1{fill:none;stroke:#000;stroke-miterlimit:10;stroke-width:4px;}</style>
</defs><g id="Layer_2" data-name="Layer 2"><g id="Layer_1-2" data-name="Layer 1">
<path d="M220.14,19a2.32,2.32,0,0,0-.57-1.38l-16-17a2,2,0,0,0-2.83-.07,2.06,2.06,0,0,0-.07,2.82L213.51,17H162.14a2,2,0,0,0,0,4h51.37L200.67,34.62a2.1,2.1,0,0,0,.07,2.83,2,2,0,0,0,2.83-.07l16-17a1.78,1.78,0,0,0,.57-1.37Z"/>
<line class="cls-1" x1="162.14" y1="19" y2="19"/></g></g></svg>