<svg xmlns="http://www.w3.org/2000/svg" width="375" viewBox="0 0 375 375" height="375" version="1.0"><path fill="#154260" d="M 46.875 378.042969 C 21.03125 378.042969 0 357.019531 0 331.1875 L 0 81.289062 C 0 64.074219 14.015625 50.050781 31.25 50.050781 L 85.9375 50.050781 C 90.25 50.050781 93.75 53.546875 93.75 57.859375 L 93.75 331.1875 C 93.75 357.019531 72.71875 378.042969 46.875 378.042969 Z M 31.25 65.667969 C 22.640625 65.667969 15.625 72.664062 15.625 81.289062 L 15.625 331.1875 C 15.625 348.429688 29.640625 362.425781 46.875 362.425781 C 64.109375 362.425781 78.125 348.429688 78.125 331.1875 L 78.125 65.667969 Z M 31.25 65.667969"/><path fill="#154260" d="M 203.125 128.144531 L 125 128.144531 C 120.6875 128.144531 117.1875 124.644531 117.1875 120.335938 C 117.1875 116.023438 120.6875 112.523438 125 112.523438 L 203.125 112.523438 C 207.421875 112.523438 210.9375 116.023438 210.9375 120.335938 C 210.9375 124.644531 207.421875 128.144531 203.125 128.144531 Z M 203.125 128.144531"/><path fill="#154260" d="M 203.125 81.289062 L 125 81.289062 C 120.6875 81.289062 117.1875 77.789062 117.1875 73.476562 C 117.1875 69.167969 120.6875 65.667969 125 65.667969 L 203.125 65.667969 C 207.421875 65.667969 210.9375 69.167969 210.9375 73.476562 C 210.9375 77.789062 207.421875 81.289062 203.125 81.289062 Z M 203.125 81.289062"/><path fill="#154260" d="M 328.125 81.289062 L 250 81.289062 C 245.703125 81.289062 242.1875 77.789062 242.1875 73.476562 C 242.1875 69.167969 245.703125 65.667969 250 65.667969 L 328.125 65.667969 C 332.421875 65.667969 335.9375 69.167969 335.9375 73.476562 C 335.9375 77.789062 332.421875 81.289062 328.125 81.289062 Z M 328.125 81.289062"/><path fill="#154260" d="M 203.125 175 L 125 175 C 120.6875 175 117.1875 171.5 117.1875 167.191406 C 117.1875 162.878906 120.6875 159.382812 125 159.382812 L 203.125 159.382812 C 207.421875 159.382812 210.9375 162.878906 210.9375 167.191406 C 210.9375 171.5 207.421875 175 203.125 175 Z M 203.125 175"/><path fill="#154260" d="M 203.125 221.855469 L 125 221.855469 C 120.6875 221.855469 117.1875 218.34375 117.1875 214.046875 C 117.1875 209.75 120.6875 206.238281 125 206.238281 L 203.125 206.238281 C 207.421875 206.238281 210.9375 209.75 210.9375 214.046875 C 210.9375 218.34375 207.421875 221.855469 203.125 221.855469 Z M 203.125 221.855469"/><path fill="#154260" d="M 335.9375 221.855469 L 242.1875 221.855469 C 237.890625 221.855469 234.375 218.34375 234.375 214.046875 L 234.375 120.335938 C 234.375 116.023438 237.890625 112.523438 242.1875 112.523438 L 335.9375 112.523438 C 340.234375 112.523438 343.75 116.023438 343.75 120.335938 L 343.75 214.046875 C 343.75 218.34375 340.234375 221.855469 335.9375 221.855469 Z M 250 206.238281 L 328.125 206.238281 L 328.125 128.144531 L 250 128.144531 Z M 250 206.238281"/><path fill="#154260" d="M 203.125 268.710938 L 125 268.710938 C 120.6875 268.710938 117.1875 265.199219 117.1875 260.902344 C 117.1875 256.609375 120.6875 253.09375 125 253.09375 L 203.125 253.09375 C 207.421875 253.09375 210.9375 256.609375 210.9375 260.902344 C 210.9375 265.199219 207.421875 268.710938 203.125 268.710938 Z M 203.125 268.710938"/><path fill="#154260" d="M 328.125 268.710938 L 250 268.710938 C 245.703125 268.710938 242.1875 265.199219 242.1875 260.902344 C 242.1875 256.609375 245.703125 253.09375 250 253.09375 L 328.125 253.09375 C 332.421875 253.09375 335.9375 256.609375 335.9375 260.902344 C 335.9375 265.199219 332.421875 268.710938 328.125 268.710938 Z M 328.125 268.710938"/><path fill="#154260" d="M 203.125 315.570312 L 125 315.570312 C 120.6875 315.570312 117.1875 312.054688 117.1875 307.757812 C 117.1875 303.464844 120.6875 299.949219 125 299.949219 L 203.125 299.949219 C 207.421875 299.949219 210.9375 303.464844 210.9375 307.757812 C 210.9375 312.054688 207.421875 315.570312 203.125 315.570312 Z M 203.125 315.570312"/><path fill="#154260" d="M 328.125 315.570312 L 250 315.570312 C 245.703125 315.570312 242.1875 312.054688 242.1875 307.757812 C 242.1875 303.464844 245.703125 299.949219 250 299.949219 L 328.125 299.949219 C 332.421875 299.949219 335.9375 303.464844 335.9375 307.757812 C 335.9375 312.054688 332.421875 315.570312 328.125 315.570312 Z M 328.125 315.570312"/><path fill="#154260" d="M 343.75 378.042969 L 46.875 378.042969 C 42.5625 378.042969 39.0625 374.53125 39.0625 370.234375 C 39.0625 365.9375 42.5625 362.425781 46.875 362.425781 L 343.75 362.425781 C 352.359375 362.425781 359.375 355.429688 359.375 346.804688 L 359.375 34.429688 C 359.375 25.808594 352.359375 18.8125 343.75 18.8125 L 109.375 18.8125 C 100.765625 18.8125 93.75 25.808594 93.75 34.429688 L 93.75 331.1875 C 93.75 335.484375 90.25 338.996094 85.9375 338.996094 C 81.625 338.996094 78.125 335.484375 78.125 331.1875 L 78.125 34.429688 C 78.125 17.21875 92.140625 3.191406 109.375 3.191406 L 343.75 3.191406 C 361 3.191406 375 17.21875 375 34.429688 L 375 346.804688 C 375 364.050781 361 378.042969 343.75 378.042969 Z M 343.75 378.042969"/></svg>