<?xml version="1.0" encoding="UTF-8"?>
<svg width="1200pt" height="1200pt" version="1.1" viewBox="0 0 1200 1200" xmlns="http://www.w3.org/2000/svg">
 <path d="m1013.6 337.32c0 6.3633-2.5273 12.469-7.0312 16.969-4.5 4.5039-10.605 7.0312-16.969 7.0312h-525.6c-8.5742 0-16.496-4.5742-20.785-12-4.2852-7.4258-4.2852-16.574 0-24 4.2891-7.4258 12.211-12 20.785-12h525.6c6.3633 0 12.469 2.5273 16.969 7.0273 4.5039 4.5039 7.0312 10.605 7.0312 16.973zm-549.6 154.68h158.16c8.5742 0 16.5-4.5742 20.785-12 4.2891-7.4258 4.2891-16.574 0-24-4.2852-7.4258-12.211-12-20.785-12h-158.16c-8.5742 0-16.496 4.5742-20.785 12-4.2852 7.4258-4.2852 16.574 0 24 4.2891 7.4258 12.211 12 20.785 12zm0 130.32h158.16c8.5742 0 16.5-4.5742 20.785-12 4.2891-7.4258 4.2891-16.574 0-24-4.2852-7.4258-12.211-12-20.785-12h-158.16c-8.5742 0-16.496 4.5742-20.785 12-4.2852 7.4258-4.2852 16.574 0 24 4.2891 7.4258 12.211 12 20.785 12zm0 130.32h158.16c8.5742 0 16.5-4.5742 20.785-12 4.2891-7.4258 4.2891-16.574 0-24-4.2852-7.4258-12.211-12-20.785-12h-158.16c-8.5742 0-16.496 4.5742-20.785 12-4.2852 7.4258-4.2852 16.574 0 24 4.2891 7.4258 12.211 12 20.785 12zm525.6 82.32h-525.6c-8.5742 0-16.496 4.5742-20.785 12-4.2852 7.4258-4.2852 16.574 0 24 4.2891 7.4258 12.211 12 20.785 12h525.6c8.5742 0 16.496-4.5742 20.785-12 4.2852-7.4258 4.2852-16.574 0-24-4.2891-7.4258-12.211-12-20.785-12zm24-367.08v260.52c0 6.3672-2.5273 12.473-7.0312 16.973-4.5 4.5-10.605 7.0273-16.969 7.0273h-233.64c-6.3633 0-12.469-2.5273-16.969-7.0273-4.5039-4.5-7.0312-10.605-7.0312-16.973v-260.4c0-6.3633 2.5273-12.469 7.0312-16.969 4.5-4.5039 10.605-7.0312 16.969-7.0312h233.64c6.3633 0 12.469 2.5273 16.969 7.0312 4.5039 4.5 7.0312 10.605 7.0312 16.969zm-48 24-185.64-0.003906v212.52h185.64zm-939.48 405.12v-468c0-8.5742 4.5742-16.496 12-20.785 7.4258-4.2852 16.574-4.2852 24 0 7.4258 4.2891 12 12.211 12 20.785v468c1.2266 35.887 21.078 68.531 52.379 86.129 31.297 17.598 69.504 17.598 100.8 0 31.297-17.598 51.148-50.242 52.375-86.129v-720.84c0-6.3672 2.5312-12.469 7.0312-16.973 4.5-4.5 10.605-7.0273 16.969-7.0273h846c6.3672 0 12.473 2.5273 16.973 7.0273 4.5 4.5039 7.0273 10.605 7.0273 16.973v742.2c0.035156 34.391-13.633 67.383-37.973 91.676-24.34 24.297-57.355 37.902-91.746 37.805h-867c-39.996-0.03125-78.344-15.934-106.62-44.215s-44.184-66.629-44.215-106.62zm261 102.84h756.84c21.578 0 42.273-8.5703 57.531-23.828 15.258-15.258 23.828-35.953 23.828-57.531v-718.32h-797.52v696.84c0.042968 38.188-14.461 74.961-40.559 102.84zm-134.16-565.8v462.6c0 8.5742 4.5742 16.496 12 20.785 7.4258 4.2852 16.574 4.2852 24 0 7.4258-4.2891 12-12.211 12-20.785v-462.6c0-8.5742-4.5742-16.496-12-20.785-7.4258-4.2852-16.574-4.2852-24 0-7.4258 4.2891-12 12.211-12 20.785z" fill="#144260"/>
</svg>
