<svg xmlns="http://www.w3.org/2000/svg" width="375" viewBox="0 0 375 375" height="375" version="1.0"><path fill="#154260" d="M 375 187.5 C 375 190.570312 374.925781 193.636719 374.773438 196.699219 C 374.625 199.765625 374.398438 202.824219 374.097656 205.878906 C 373.796875 208.933594 373.421875 211.976562 372.96875 215.011719 C 372.519531 218.046875 371.996094 221.070312 371.398438 224.078125 C 370.796875 227.089844 370.125 230.082031 369.378906 233.058594 C 368.636719 236.035156 367.816406 238.992188 366.925781 241.929688 C 366.035156 244.863281 365.074219 247.777344 364.039062 250.667969 C 363.003906 253.554688 361.902344 256.417969 360.726562 259.253906 C 359.554688 262.089844 358.308594 264.890625 356.996094 267.667969 C 355.6875 270.441406 354.308594 273.179688 352.859375 275.886719 C 351.414062 278.59375 349.902344 281.261719 348.324219 283.894531 C 346.746094 286.527344 345.105469 289.117188 343.402344 291.667969 C 341.695312 294.222656 339.929688 296.730469 338.101562 299.195312 C 336.273438 301.660156 334.386719 304.078125 332.4375 306.449219 C 330.492188 308.820312 328.488281 311.144531 326.429688 313.417969 C 324.367188 315.691406 322.253906 317.914062 320.082031 320.082031 C 317.914062 322.253906 315.691406 324.367188 313.417969 326.429688 C 311.144531 328.488281 308.820312 330.492188 306.449219 332.4375 C 304.078125 334.386719 301.660156 336.273438 299.195312 338.101562 C 296.730469 339.929688 294.222656 341.695312 291.667969 343.402344 C 289.117188 345.105469 286.527344 346.746094 283.894531 348.324219 C 281.261719 349.902344 278.59375 351.414062 275.886719 352.859375 C 273.179688 354.304688 270.441406 355.6875 267.667969 356.996094 C 264.890625 358.308594 262.089844 359.554688 259.253906 360.726562 C 256.417969 361.902344 253.554688 363.003906 250.667969 364.039062 C 247.777344 365.074219 244.863281 366.035156 241.929688 366.925781 C 238.992188 367.816406 236.035156 368.636719 233.058594 369.378906 C 230.082031 370.125 227.089844 370.796875 224.078125 371.398438 C 221.070312 371.996094 218.046875 372.519531 215.011719 372.96875 C 211.976562 373.421875 208.933594 373.796875 205.878906 374.097656 C 202.824219 374.398438 199.765625 374.625 196.699219 374.773438 C 193.636719 374.925781 190.570312 375 187.5 375 C 184.429688 375 181.363281 374.925781 178.300781 374.773438 C 175.234375 374.625 172.175781 374.398438 169.121094 374.097656 C 166.066406 373.796875 163.023438 373.421875 159.988281 372.96875 C 156.953125 372.519531 153.929688 371.996094 150.921875 371.398438 C 147.910156 370.796875 144.917969 370.125 141.941406 369.378906 C 138.964844 368.636719 136.007812 367.816406 133.070312 366.925781 C 130.136719 366.035156 127.222656 365.074219 124.332031 364.039062 C 121.445312 363.003906 118.582031 361.902344 115.746094 360.726562 C 112.910156 359.554688 110.105469 358.308594 107.332031 356.996094 C 104.558594 355.6875 101.820312 354.308594 99.113281 352.859375 C 96.40625 351.414062 93.738281 349.902344 91.105469 348.324219 C 88.472656 346.746094 85.882812 345.105469 83.332031 343.402344 C 80.777344 341.695312 78.269531 339.929688 75.804688 338.101562 C 73.339844 336.273438 70.921875 334.386719 68.550781 332.4375 C 66.179688 330.492188 63.855469 328.488281 61.582031 326.429688 C 59.308594 324.367188 57.085938 322.253906 54.917969 320.082031 C 52.746094 317.914062 50.632812 315.691406 48.570312 313.417969 C 46.511719 311.144531 44.507812 308.820312 42.558594 306.449219 C 40.613281 304.078125 38.726562 301.660156 36.898438 299.195312 C 35.070312 296.730469 33.304688 294.222656 31.597656 291.667969 C 29.894531 289.117188 28.253906 286.527344 26.675781 283.894531 C 25.097656 281.261719 23.585938 278.59375 22.140625 275.886719 C 20.691406 273.179688 19.3125 270.441406 18.003906 267.667969 C 16.691406 264.890625 15.445312 262.089844 14.273438 259.253906 C 13.097656 256.417969 11.996094 253.554688 10.960938 250.667969 C 9.925781 247.777344 8.964844 244.863281 8.074219 241.929688 C 7.183594 238.992188 6.363281 236.035156 5.621094 233.058594 C 4.875 230.082031 4.203125 227.089844 3.601562 224.078125 C 3.003906 221.070312 2.480469 218.046875 2.03125 215.011719 C 1.578125 211.976562 1.203125 208.933594 0.902344 205.878906 C 0.601562 202.824219 0.375 199.765625 0.226562 196.699219 C 0.0742188 193.636719 0 190.570312 0 187.5 C 0 184.429688 0.0742188 181.363281 0.226562 178.300781 C 0.375 175.234375 0.601562 172.175781 0.902344 169.121094 C 1.203125 166.066406 1.578125 163.023438 2.03125 159.988281 C 2.480469 156.953125 3.003906 153.929688 3.601562 150.921875 C 4.203125 147.910156 4.875 144.917969 5.621094 141.941406 C 6.363281 138.964844 7.183594 136.007812 8.074219 133.070312 C 8.964844 130.136719 9.925781 127.222656 10.960938 124.332031 C 11.996094 121.445312 13.097656 118.582031 14.273438 115.746094 C 15.445312 112.910156 16.691406 110.105469 18.003906 107.332031 C 19.3125 104.558594 20.691406 101.820312 22.140625 99.113281 C 23.585938 96.40625 25.097656 93.738281 26.675781 91.105469 C 28.253906 88.472656 29.894531 85.882812 31.597656 83.332031 C 33.304688 80.777344 35.070312 78.269531 36.898438 75.804688 C 38.726562 73.339844 40.613281 70.921875 42.558594 68.550781 C 44.507812 66.179688 46.511719 63.855469 48.570312 61.582031 C 50.632812 59.308594 52.746094 57.085938 54.917969 54.917969 C 57.085938 52.746094 59.308594 50.632812 61.582031 48.570312 C 63.855469 46.511719 66.179688 44.507812 68.550781 42.558594 C 70.921875 40.613281 73.339844 38.726562 75.804688 36.898438 C 78.269531 35.070312 80.777344 33.304688 83.332031 31.597656 C 85.882812 29.894531 88.472656 28.253906 91.105469 26.675781 C 93.738281 25.097656 96.40625 23.585938 99.113281 22.140625 C 101.820312 20.691406 104.558594 19.3125 107.332031 18.003906 C 110.105469 16.691406 112.910156 15.445312 115.746094 14.273438 C 118.582031 13.097656 121.445312 11.996094 124.332031 10.960938 C 127.222656 9.925781 130.136719 8.964844 133.070312 8.074219 C 136.007812 7.183594 138.964844 6.363281 141.941406 5.617188 C 144.917969 4.875 147.910156 4.203125 150.921875 3.601562 C 153.929688 3.003906 156.953125 2.480469 159.988281 2.03125 C 163.023438 1.578125 166.066406 1.203125 169.121094 0.902344 C 172.175781 0.601562 175.234375 0.375 178.300781 0.226562 C 181.363281 0.0742188 184.429688 0 187.5 0 C 190.570312 0 193.636719 0.0742188 196.699219 0.226562 C 199.765625 0.375 202.824219 0.601562 205.878906 0.902344 C 208.933594 1.203125 211.976562 1.578125 215.011719 2.03125 C 218.046875 2.480469 221.070312 3.003906 224.078125 3.601562 C 227.089844 4.203125 230.082031 4.875 233.058594 5.617188 C 236.035156 6.363281 238.992188 7.183594 241.929688 8.074219 C 244.863281 8.964844 247.777344 9.925781 250.667969 10.960938 C 253.554688 11.996094 256.417969 13.097656 259.253906 14.273438 C 262.089844 15.445312 264.890625 16.691406 267.667969 18.003906 C 270.441406 19.3125 273.179688 20.691406 275.886719 22.140625 C 278.59375 23.585938 281.261719 25.097656 283.894531 26.675781 C 286.527344 28.253906 289.117188 29.894531 291.667969 31.597656 C 294.222656 33.304688 296.730469 35.070312 299.195312 36.898438 C 301.660156 38.726562 304.078125 40.613281 306.449219 42.558594 C 308.820312 44.507812 311.144531 46.511719 313.417969 48.570312 C 315.691406 50.632812 317.914062 52.746094 320.082031 54.917969 C 322.253906 57.085938 324.367188 59.308594 326.429688 61.582031 C 328.488281 63.855469 330.492188 66.179688 332.4375 68.550781 C 334.386719 70.921875 336.273438 73.339844 338.101562 75.804688 C 339.929688 78.269531 341.695312 80.777344 343.402344 83.332031 C 345.105469 85.882812 346.746094 88.472656 348.324219 91.105469 C 349.902344 93.738281 351.414062 96.40625 352.859375 99.113281 C 354.308594 101.820312 355.6875 104.558594 356.996094 107.332031 C 358.308594 110.105469 359.554688 112.910156 360.726562 115.746094 C 361.902344 118.582031 363.003906 121.445312 364.039062 124.332031 C 365.074219 127.222656 366.035156 130.136719 366.925781 133.070312 C 367.816406 136.007812 368.636719 138.964844 369.378906 141.941406 C 370.125 144.917969 370.796875 147.910156 371.398438 150.921875 C 371.996094 153.929688 372.519531 156.953125 372.96875 159.988281 C 373.421875 163.023438 373.796875 166.066406 374.097656 169.121094 C 374.398438 172.175781 374.625 175.234375 374.773438 178.300781 C 374.925781 181.363281 375 184.429688 375 187.5"/><path stroke-linecap="round" transform="scale(3.47222)" fill="none" stroke-linejoin="round" d="M 63.12038 72.310507 C 62.831255 72.266632 62.54213 72.268882 62.254129 72.315007 C 61.966129 72.361132 61.691629 72.450007 61.430629 72.581632 C 61.170754 72.713257 60.935629 72.882007 60.727504 73.085632 C 60.519379 73.290382 60.346129 73.522132 60.210004 73.779757 L 58.999504 73.779757 C 58.896004 73.780882 58.793629 73.770757 58.692379 73.751632 C 58.591129 73.731382 58.492129 73.702132 58.396504 73.663882 C 58.299754 73.624507 58.209754 73.576132 58.123129 73.518757 C 58.036504 73.461382 57.956629 73.396132 57.883504 73.324132 C 57.810379 73.251007 57.744004 73.171132 57.686629 73.085632 C 57.629254 72.999007 57.579754 72.909007 57.540379 72.813382 C 57.501004 72.717757 57.470629 72.618757 57.450379 72.517507 C 57.430129 72.416257 57.420004 72.313882 57.420004 72.210382 L 57.420004 64.149756 L 49.410003 64.149756 C 49.306503 64.150881 49.204128 64.140756 49.101753 64.121631 C 49.000503 64.101381 48.901503 64.072131 48.805878 64.033881 C 48.710253 63.994506 48.619128 63.946131 48.532503 63.888756 C 48.447003 63.831381 48.367128 63.766131 48.292878 63.694131 C 48.219753 63.621006 48.154503 63.541131 48.097128 63.455631 C 48.038628 63.369006 47.990253 63.279006 47.950878 63.183381 C 47.910378 63.087756 47.881128 62.988756 47.860878 62.887506 C 47.840628 62.786256 47.830503 62.683881 47.830503 62.580381 L 47.830503 61.410381 C 48.089253 61.274256 48.321003 61.102131 48.526878 60.894006 C 48.732753 60.685881 48.901503 60.451881 49.034253 60.190881 C 49.167003 59.929881 49.255878 59.655381 49.303128 59.367381 C 49.350378 59.078255 49.352628 58.78913 49.309878 58.500005 C 49.280628 58.32788 49.236753 58.15913 49.176003 57.99488 C 49.115253 57.831755 49.041003 57.674255 48.951003 57.523505 C 48.862128 57.37388 48.759753 57.233255 48.643878 57.10163 C 48.529128 56.97113 48.402003 56.850755 48.264753 56.74388 C 48.126378 56.63588 47.980128 56.54138 47.826003 56.46038 C 47.670753 56.380505 47.509878 56.31413 47.342253 56.263505 C 47.174628 56.21288 47.004753 56.178005 46.830378 56.15888 C 46.657128 56.139755 46.482753 56.13638 46.308378 56.148755 C 46.134003 56.162255 45.963003 56.191505 45.794253 56.236505 C 45.624378 56.28038 45.461253 56.34113 45.303753 56.41538 C 45.146253 56.490755 44.996628 56.57963 44.854878 56.68313 C 44.713128 56.785505 44.582628 56.900255 44.462253 57.02738 C 44.343003 57.154505 44.235003 57.291755 44.140503 57.438005 C 44.046003 57.58538 43.966128 57.739505 43.899753 57.901505 C 43.833378 58.063505 43.782753 58.230005 43.747878 58.401005 C 43.711878 58.572005 43.692753 58.745255 43.690503 58.91963 C 43.690503 59.177255 43.724253 59.428131 43.794003 59.675631 C 43.862628 59.923131 43.963878 60.156006 44.097753 60.375381 C 44.230503 60.595881 44.390253 60.792756 44.578128 60.968256 C 44.764878 61.143756 44.971878 61.291131 45.200253 61.410381 L 45.200253 62.580381 C 45.200253 62.683881 45.190128 62.786256 45.169878 62.887506 C 45.149628 62.988756 45.119253 63.087756 45.079878 63.183381 C 45.039378 63.279006 44.991003 63.369006 44.933628 63.455631 C 44.875128 63.541131 44.809878 63.621006 44.736753 63.694131 C 44.663628 63.766131 44.583753 63.831381 44.497128 63.888756 C 44.410503 63.946131 44.319378 63.994506 44.223753 64.033881 C 44.128128 64.072131 44.029128 64.101381 43.927878 64.121631 C 43.826628 64.140756 43.723128 64.150881 43.619628 64.149756 L 35.619752 64.149756 L 35.619752 86.050133 L 57.460504 86.050133 L 57.460504 77.999632 C 57.460504 77.898382 57.469504 77.797132 57.489754 77.697007 C 57.508879 77.596882 57.538129 77.499007 57.576379 77.404507 C 57.614629 77.310007 57.661879 77.220007 57.718129 77.134507 C 57.773254 77.049007 57.837379 76.970257 57.908254 76.897132 C 57.980254 76.824007 58.057879 76.757632 58.141129 76.700257 C 58.225504 76.641757 58.314379 76.592257 58.407754 76.551757 C 58.501129 76.511257 58.597879 76.479757 58.696879 76.457257 C 58.797004 76.434757 58.898254 76.422382 58.999504 76.420132 L 60.169504 76.420132 C 60.225754 76.525882 60.288754 76.628257 60.358504 76.726132 C 60.427129 76.824007 60.502504 76.916257 60.583504 77.005132 C 60.664504 77.094007 60.751129 77.176132 60.842254 77.253757 C 60.933379 77.331382 61.030129 77.402257 61.130254 77.467507 C 61.231504 77.532757 61.336129 77.591257 61.444129 77.643007 C 61.552129 77.694757 61.663504 77.738632 61.777129 77.776882 C 61.890754 77.814007 62.006629 77.844382 62.124754 77.866882 C 62.241754 77.890507 62.361004 77.905132 62.480255 77.913007 C 62.599505 77.920882 62.71988 77.920882 62.83913 77.913007 C 62.95838 77.905132 63.07763 77.890507 63.195755 77.868007 C 63.312755 77.845507 63.42863 77.815132 63.542255 77.778007 C 63.657005 77.739757 63.767255 77.695882 63.875255 77.644132 C 63.98438 77.592382 64.089005 77.533882 64.18913 77.468632 C 64.29038 77.404507 64.386005 77.332507 64.478255 77.256007 C 64.56938 77.178382 64.656005 77.096257 64.737005 77.007382 C 64.818005 76.919632 64.89338 76.826257 64.96313 76.728382 C 65.031755 76.630507 65.094755 76.528132 65.151005 76.422382 C 65.207255 76.316632 65.256755 76.207507 65.299505 76.096132 C 65.34113 75.983632 65.37713 75.868882 65.40413 75.753007 C 65.432255 75.636007 65.452505 75.517882 65.46488 75.398632 C 65.47838 75.279382 65.48288 75.160132 65.48063 75.039757 C 65.47838 74.920507 65.468255 74.801257 65.450255 74.683132 C 65.432255 74.563882 65.407505 74.446882 65.37488 74.332132 C 65.342255 74.216257 65.30288 74.103757 65.25563 73.993507 C 65.20838 73.883257 65.15438 73.776382 65.09363 73.672882 C 65.034005 73.569382 64.966505 73.470382 64.89338 73.374757 C 64.820255 73.280257 64.741505 73.190257 64.656005 73.105882 C 64.57163 73.020382 64.48163 72.941632 64.38713 72.868507 C 64.29263 72.795382 64.192505 72.727882 64.09013 72.667132 C 63.98663 72.606382 63.879755 72.552382 63.769505 72.505132 C 63.659255 72.457882 63.54563 72.418507 63.43088 72.385882 C 63.315005 72.353257 63.198005 72.327382 63.07988 72.310507 Z M 63.12038 72.310507" stroke="#FFF" stroke-width="2"/><path stroke-linecap="round" transform="scale(3.47222)" fill="none" stroke-linejoin="round" d="M 57.460504 64.149756 L 57.460504 56.10038 C 57.460504 55.998005 57.469504 55.896755 57.489754 55.79663 C 57.508879 55.696505 57.538129 55.59863 57.576379 55.50413 C 57.614629 55.40963 57.661879 55.31963 57.718129 55.23413 C 57.773254 55.14863 57.837379 55.06988 57.908254 54.996755 C 57.980254 54.92363 58.057879 54.85838 58.141129 54.79988 C 58.225504 54.74138 58.314379 54.69188 58.407754 54.65138 C 58.501129 54.61088 58.597879 54.57938 58.696879 54.55688 C 58.797004 54.535505 58.898254 54.52313 58.999504 54.519755 L 60.169504 54.519755 C 60.219004 54.612005 60.271879 54.70088 60.330379 54.787505 C 60.388879 54.87413 60.451879 54.956255 60.519379 55.03613 C 60.586879 55.11488 60.658879 55.190255 60.735379 55.26113 C 60.810754 55.33313 60.890629 55.399505 60.973879 55.462505 C 61.057129 55.52438 61.143754 55.581755 61.233754 55.63463 C 61.323754 55.687505 61.416004 55.73588 61.510504 55.77863 C 61.606129 55.820255 61.702879 55.858505 61.801879 55.890005 C 61.900879 55.921505 62.002129 55.948505 62.103379 55.968755 C 62.205754 55.989005 62.309254 56.004755 62.412754 56.013755 C 62.516255 56.022755 62.619755 56.02613 62.72438 56.02388 C 62.829005 56.02163 62.932505 56.013755 63.03488 56.000255 C 63.13838 55.986755 63.240755 55.96763 63.342005 55.94288 C 63.443255 55.917005 63.542255 55.88663 63.64013 55.85063 C 63.738005 55.81463 63.83363 55.773005 63.927005 55.72688 C 64.019255 55.680755 64.11038 55.629005 64.197005 55.57163 C 64.284755 55.51538 64.36913 55.45463 64.449005 55.388255 C 64.530005 55.32188 64.606505 55.25213 64.67963 55.17788 C 64.752755 55.10363 64.82138 55.02488 64.885505 54.942755 C 64.94963 54.86063 65.009255 54.776255 65.063255 54.68738 C 65.11838 54.598505 65.16788 54.50738 65.21288 54.41288 C 65.25788 54.319505 65.29613 54.222755 65.331005 54.123755 C 65.364755 54.02588 65.39288 53.925755 65.41538 53.824505 C 65.439005 53.72213 65.45588 53.619755 65.46713 53.516255 C 65.47838 53.412755 65.48513 53.309255 65.48513 53.20463 C 65.48513 53.10113 65.47838 52.996505 65.46713 52.893005 C 65.45588 52.789505 65.439005 52.68713 65.41538 52.58588 C 65.39288 52.48463 65.364755 52.384505 65.331005 52.285505 C 65.29613 52.18763 65.25788 52.09088 65.21288 51.99638 C 65.16788 51.903005 65.11838 51.81188 65.063255 51.723005 C 65.009255 51.63413 64.94963 51.54863 64.885505 51.466505 C 64.82138 51.38438 64.752755 51.306755 64.67963 51.232505 C 64.606505 51.158255 64.530005 51.08738 64.449005 51.02213 C 64.36913 50.955755 64.284755 50.895005 64.197005 50.83763 C 64.11038 50.78138 64.019255 50.72963 63.927005 50.683505 C 63.83363 50.636255 63.738005 50.59463 63.64013 50.55863 C 63.542255 50.52263 63.443255 50.492255 63.342005 50.467505 C 63.240755 50.442755 63.13838 50.42363 63.03488 50.409005 C 62.932505 50.395505 62.829005 50.38763 62.72438 50.38538 C 62.619755 50.38313 62.516255 50.386505 62.412754 50.39663 C 62.309254 50.40563 62.205754 50.420255 62.103379 50.44163 C 62.002129 50.46188 61.900879 50.487755 61.801879 50.52038 C 61.702879 50.55188 61.606129 50.589005 61.510504 50.631755 C 61.416004 50.674505 61.323754 50.721755 61.233754 50.77463 C 61.143754 50.827505 61.057129 50.886005 60.973879 50.94788 C 60.890629 51.01088 60.810754 51.077255 60.735379 51.14813 C 60.658879 51.22013 60.586879 51.295505 60.519379 51.374255 C 60.451879 51.45413 60.388879 51.536255 60.330379 51.62288 C 60.271879 51.70838 60.219004 51.79838 60.169504 51.889505 L 58.999504 51.889505 C 58.896004 51.889505 58.793629 51.87938 58.691254 51.85913 C 58.590004 51.83888 58.491004 51.80963 58.395379 51.770255 C 58.299754 51.729755 58.208629 51.68138 58.122004 51.624005 C 58.035379 51.56663 57.956629 51.500255 57.882379 51.42713 C 57.809254 51.354005 57.744004 51.27413 57.686629 51.187505 C 57.628129 51.102005 57.579754 51.01088 57.540379 50.91413 C 57.501004 50.818505 57.470629 50.719505 57.450379 50.618255 C 57.430129 50.517005 57.420004 50.413505 57.420004 50.310005 L 57.420004 42.250504 L 35.570252 42.250504 L 35.570252 64.149756" stroke="#FFF" stroke-width="2"/><path stroke-linecap="round" transform="scale(3.47222)" fill="none" stroke-linejoin="round" d="M 57.450379 86.050133 L 79.349631 86.050133 L 79.349631 64.149756 L 70.870505 64.149756 C 70.79288 64.150881 70.71638 64.158756 70.641005 64.174506 C 70.56563 64.190256 70.492505 64.212756 70.42163 64.243131 C 70.350755 64.272381 70.283255 64.309506 70.21913 64.352256 C 70.155005 64.395006 70.096505 64.444506 70.042505 64.499631 C 69.98738 64.553631 69.939005 64.613256 69.896255 64.677381 C 69.85463 64.741506 69.81863 64.809006 69.78938 64.881006 C 69.759005 64.951881 69.73763 65.025006 69.72188 65.101506 C 69.707255 65.176881 69.700505 65.253381 69.700505 65.329881 L 69.700505 66.859881 C 69.790505 66.908256 69.878255 66.961131 69.963755 67.018506 C 70.04813 67.075881 70.12913 67.138881 70.20788 67.205256 C 70.285505 67.271631 70.359755 67.342506 70.429505 67.417881 C 70.50038 67.492131 70.56563 67.570881 70.627505 67.653006 C 70.688255 67.735131 70.74563 67.820631 70.79738 67.909506 C 70.84913 67.998381 70.89638 68.088381 70.938005 68.182881 C 70.97963 68.276256 71.016755 68.371881 71.04713 68.469756 C 71.07863 68.567631 71.104505 68.666631 71.124755 68.766756 C 71.145005 68.868006 71.15963 68.969256 71.16863 69.071631 C 71.17763 69.174006 71.18213 69.276381 71.17988 69.378756 C 71.17763 69.481131 71.16863 69.583506 71.15513 69.684756 C 71.14163 69.787131 71.122505 69.887256 71.097755 69.987381 C 71.073005 70.086382 71.043755 70.184257 71.007755 70.281007 C 70.971755 70.376632 70.931255 70.471132 70.88513 70.563382 C 70.839005 70.654507 70.78838 70.743382 70.733255 70.830007 C 70.677005 70.915507 70.616255 70.998757 70.551005 71.077507 C 70.48688 71.157382 70.41713 71.232757 70.344005 71.304757 C 70.27088 71.376757 70.193255 71.444257 70.112255 71.507257 C 70.03238 71.570257 69.948005 71.628757 69.860255 71.682757 C 69.77363 71.736757 69.68363 71.785132 69.590255 71.829007 C 69.498005 71.874007 69.40238 71.912257 69.30563 71.946007 C 69.20888 71.978632 69.10988 72.006757 69.009755 72.029257 C 68.90963 72.051757 68.80838 72.068632 68.70713 72.079882 C 68.604755 72.091132 68.50238 72.097882 68.400005 72.097882 C 68.29763 72.097882 68.195255 72.091132 68.09288 72.079882 C 67.99163 72.068632 67.89038 72.051757 67.790255 72.029257 C 67.69013 72.006757 67.59113 71.978632 67.49438 71.946007 C 67.39763 71.912257 67.302005 71.874007 67.209755 71.829007 C 67.11638 71.785132 67.02638 71.736757 66.939755 71.682757 C 66.852005 71.628757 66.76763 71.570257 66.687755 71.507257 C 66.606755 71.444257 66.52913 71.376757 66.456005 71.304757 C 66.38288 71.232757 66.31313 71.157382 66.249005 71.077507 C 66.183755 70.998757 66.123005 70.915507 66.06788 70.830007 C 66.01163 70.743382 65.961005 70.654507 65.91488 70.563382 C 65.868755 70.471132 65.828255 70.376632 65.792255 70.281007 C 65.756255 70.184257 65.727005 70.086382 65.702255 69.987381 C 65.677505 69.887256 65.65838 69.787131 65.64488 69.684756 C 65.63138 69.583506 65.623505 69.481131 65.62013 69.378756 C 65.61788 69.276381 65.62238 69.174006 65.63138 69.071631 C 65.64038 68.969256 65.655005 68.868006 65.675255 68.766756 C 65.695505 68.666631 65.72138 68.567631 65.75288 68.469756 C 65.783255 68.371881 65.82038 68.276256 65.862005 68.182881 C 65.90363 68.088381 65.95088 67.998381 66.00263 67.909506 C 66.05438 67.820631 66.111755 67.735131 66.172505 67.653006 C 66.23438 67.570881 66.29963 67.492131 66.370505 67.417881 C 66.440255 67.342506 66.514505 67.271631 66.59213 67.205256 C 66.67088 67.138881 66.75188 67.075881 66.836255 67.018506 C 66.921755 66.961131 67.009505 66.908256 67.099505 66.859881 L 67.099505 65.329881 C 67.10063 65.252256 67.09388 65.175756 67.079255 65.100381 C 67.06463 65.025006 67.043255 64.950756 67.014005 64.878756 C 66.984755 64.807881 66.948755 64.739256 66.906005 64.675131 C 66.863255 64.611006 66.81488 64.551381 66.76088 64.496256 C 66.70688 64.441131 66.647255 64.392756 66.58313 64.348881 C 66.519005 64.306131 66.451505 64.270131 66.38063 64.239756 C 66.30863 64.210506 66.235505 64.188006 66.159005 64.172256 C 66.08363 64.157631 66.00713 64.149756 65.929505 64.149756 L 57.450379 64.149756" stroke="#FFF" stroke-width="2"/><path stroke-linecap="round" transform="scale(3.47222)" fill="none" stroke-linejoin="round" d="M 67.450505 27.000003 L 66.109505 34.169628 C 66.09488 34.246128 66.087005 34.323753 66.087005 34.401378 C 66.08813 34.479003 66.096005 34.555503 66.11063 34.632003 C 66.12638 34.707378 66.14888 34.781628 66.179255 34.853628 C 66.20963 34.924503 66.246755 34.993128 66.29063 35.057253 C 66.334505 35.121378 66.384005 35.181003 66.43913 35.235003 C 66.49538 35.289003 66.555005 35.337378 66.620255 35.380128 C 66.685505 35.422878 66.75413 35.457753 66.827255 35.485878 C 66.899255 35.515128 66.973505 35.536503 67.050005 35.550003 L 68.539505 35.830128 C 68.636255 35.708628 68.74313 35.597253 68.85788 35.493753 C 68.973755 35.390253 69.09638 35.296878 69.22688 35.213628 C 69.358505 35.130378 69.49463 35.058378 69.637505 34.998753 C 69.78038 34.938003 69.92663 34.889628 70.07738 34.853628 C 70.22813 34.817628 70.38113 34.795128 70.535255 34.783878 C 70.68938 34.773753 70.84463 34.776003 70.998755 34.790628 C 71.15288 34.805253 71.304755 34.833378 71.45438 34.872753 C 71.604005 34.913253 71.74913 34.966128 71.889755 35.030253 C 71.99438 35.078628 72.09563 35.133753 72.19238 35.195628 C 72.290255 35.256378 72.38363 35.323878 72.472505 35.395878 C 72.56138 35.469003 72.645755 35.547753 72.72563 35.631003 C 72.80438 35.714253 72.87863 35.802003 72.947255 35.894253 C 73.01588 35.987628 73.07888 36.083253 73.13513 36.184503 C 73.19138 36.284628 73.242006 36.388128 73.284756 36.493878 C 73.328631 36.600753 73.365756 36.709878 73.396131 36.821253 C 73.426506 36.931503 73.449006 37.045128 73.464756 37.158753 C 73.481631 37.272378 73.490631 37.387128 73.492881 37.501878 C 73.494006 37.617753 73.489506 37.732504 73.477131 37.847254 C 73.464756 37.960879 73.444506 38.074504 73.418631 38.187004 C 73.391631 38.298379 73.359006 38.408629 73.318506 38.516629 C 73.278006 38.624629 73.231881 38.729254 73.179005 38.831629 C 73.12613 38.934004 73.066505 39.031879 73.001255 39.127504 C 72.936005 39.222004 72.864005 39.312004 72.787505 39.398629 C 72.711005 39.484129 72.630005 39.565129 72.54338 39.640504 C 72.456755 39.717004 72.36563 39.786754 72.270005 39.850879 C 72.17438 39.916129 72.07538 39.974629 71.973005 40.026379 C 71.87063 40.078129 71.76488 40.124254 71.65688 40.163629 C 71.547755 40.201879 71.437505 40.234504 71.325005 40.260379 C 71.21363 40.285129 71.100005 40.304254 70.985255 40.315504 C 70.870505 40.326754 70.755755 40.330129 70.641005 40.327879 C 70.52513 40.324504 70.41038 40.314379 70.296755 40.297504 C 70.18313 40.279504 70.07063 40.255879 69.96038 40.224379 C 69.849005 40.192879 69.741005 40.155754 69.63413 40.110754 C 69.52838 40.065754 69.42488 40.015129 69.32588 39.957754 C 69.225755 39.900379 69.13013 39.836254 69.03788 39.767629 C 68.94563 39.697879 68.859005 39.623629 68.775755 39.542629 C 68.69363 39.462754 68.616005 39.377254 68.544005 39.288379 C 68.472005 39.198379 68.40563 39.103879 68.346005 39.006004 C 68.285255 38.908129 68.231255 38.806879 68.18288 38.702254 C 68.13563 38.597629 68.094005 38.489629 68.060255 38.380504 L 66.56963 38.100379 C 66.492005 38.086879 66.413255 38.081254 66.33338 38.083504 C 66.25463 38.085754 66.17588 38.095879 66.098255 38.113879 C 66.02063 38.131879 65.94638 38.156629 65.87438 38.189254 C 65.801255 38.223004 65.733755 38.262379 65.66963 38.308504 C 65.60438 38.355754 65.54588 38.408629 65.49188 38.466004 C 65.43788 38.524504 65.39063 38.588629 65.35013 38.656129 C 65.308505 38.723629 65.274755 38.795629 65.247755 38.869879 C 65.220755 38.945254 65.20163 39.021754 65.19038 39.100504 L 63.409505 48.56963 L 71.329505 49.999505 C 71.43188 50.01863 71.529755 50.046755 71.626505 50.085005 C 71.72213 50.123255 71.813255 50.170505 71.89988 50.226755 C 71.986505 50.283005 72.06638 50.346005 72.14063 50.418005 C 72.21488 50.490005 72.281255 50.568755 72.339755 50.654255 C 72.398255 50.73863 72.447755 50.82863 72.488255 50.92313 C 72.528755 51.01763 72.560255 51.115505 72.58163 51.216755 C 72.603005 51.318005 72.614255 51.42038 72.616505 51.522755 C 72.61763 51.626255 72.60863 51.72863 72.589505 51.82988 L 72.37013 52.97963 C 72.270005 53.01113 72.17213 53.04713 72.076505 53.088755 C 71.979755 53.129255 71.88638 53.176505 71.79638 53.228255 C 71.705255 53.280005 71.617505 53.336255 71.53313 53.39813 C 71.448755 53.460005 71.367755 53.52638 71.29013 53.59613 C 71.21363 53.667005 71.140505 53.741255 71.07188 53.820005 C 71.00213 53.898755 70.938005 53.98088 70.87838 54.06638 C 70.818755 54.153005 70.76363 54.240755 70.71413 54.333005 C 70.663505 54.425255 70.618505 54.519755 70.57913 54.616505 C 70.539755 54.713255 70.506005 54.81113 70.476755 54.91238 C 70.44863 55.012505 70.42613 55.11488 70.40813 55.217255 C 70.391255 55.320755 70.380005 55.424255 70.37438 55.52888 C 70.36763 55.633505 70.36763 55.73813 70.373255 55.84163 C 70.380005 55.946255 70.391255 56.049755 70.40813 56.153255 C 70.42613 56.256755 70.44863 56.358005 70.476755 56.459255 C 70.506005 56.55938 70.539755 56.65838 70.57913 56.75513 C 70.618505 56.85188 70.663505 56.94638 70.713005 57.037505 C 70.76363 57.129755 70.81763 57.21863 70.87838 57.30413 C 70.938005 57.38963 71.00213 57.471755 71.070755 57.550505 C 71.13938 57.629255 71.212505 57.703505 71.29013 57.77438 C 71.367755 57.845255 71.44763 57.91163 71.532005 57.97238 C 71.617505 58.034255 71.70413 58.090505 71.795255 58.14338 C 71.88638 58.19513 71.979755 58.241255 72.07538 58.28288 C 72.171005 58.324505 72.26888 58.360505 72.369005 58.39088 C 72.46913 58.42238 72.57038 58.44713 72.67388 58.466255 C 72.776255 58.48538 72.879755 58.500005 72.98438 58.50788 C 73.08788 58.515755 73.192505 58.518005 73.297131 58.513505 C 73.401756 58.51013 73.505256 58.50113 73.608756 58.486505 C 73.712256 58.470755 73.814631 58.450505 73.915881 58.423505 C 74.017131 58.39763 74.116131 58.365005 74.214006 58.32788 C 74.311881 58.290755 74.406381 58.248005 74.499756 58.19963 C 74.592006 58.151255 74.682006 58.09838 74.769756 58.03988 C 74.856381 57.982505 74.939631 57.919505 75.019506 57.852005 C 75.099381 57.78563 75.175881 57.71363 75.247881 57.638255 C 75.319881 57.56288 75.388506 57.483005 75.451506 57.399755 C 75.514506 57.316505 75.573006 57.22988 75.627006 57.141005 C 75.681006 57.051005 75.729381 56.958755 75.773256 56.86313 C 75.816006 56.76863 75.854256 56.670755 75.886881 56.571755 C 75.919506 56.472755 75.946506 56.371505 75.969006 56.26913 C 75.990381 56.166755 76.006131 56.06438 76.016256 55.959755 C 76.026381 55.856255 76.030881 55.75163 76.028631 55.647005 C 76.027506 55.54238 76.020756 55.43888 76.007256 55.334255 C 75.994881 55.230755 75.975756 55.12838 75.952131 55.026005 C 75.927381 54.924755 75.897006 54.82463 75.862131 54.726755 C 75.826131 54.627755 75.785631 54.53213 75.739506 54.43763 C 75.693381 54.344255 75.642756 54.25313 75.586506 54.16538 C 75.530256 54.076505 75.469506 53.99213 75.403131 53.91113 C 75.337881 53.829005 75.268131 53.75138 75.193881 53.678255 C 75.119631 53.604005 75.042006 53.53538 74.959881 53.47013 L 75.180381 52.32038 C 75.196131 52.21688 75.222006 52.11563 75.256881 52.017755 C 75.292881 51.91988 75.337881 51.82538 75.393006 51.736505 C 75.447006 51.646505 75.510006 51.56438 75.580881 51.486755 C 75.651756 51.410255 75.729381 51.34163 75.813756 51.279755 C 75.899256 51.21788 75.989256 51.16613 76.083756 51.122255 C 76.179381 51.07838 76.277256 51.04463 76.378506 51.021005 C 76.480881 50.99738 76.584381 50.982755 76.689006 50.97938 C 76.792506 50.976005 76.897131 50.982755 76.999506 50.99963 L 84.910507 52.490255 L 88.999882 31.000503 Z M 67.450505 27.000003" stroke="#FFF" stroke-width="2"/><path stroke-linecap="round" transform="scale(3.47222)" fill="none" stroke-linejoin="round" d="M 44.660253 40.240129 L 44.660253 38.239879 L 41.659878 38.239879 C 41.400003 36.941628 40.903877 35.742378 40.170377 34.639878 L 42.259503 32.539503 L 39.469502 29.759628 L 37.380377 31.849878 C 36.279002 31.113003 35.078627 30.613503 33.780377 30.350253 L 33.780377 27.429753 L 29.869876 27.429753 L 29.869876 30.379503 C 28.571626 30.643878 27.371251 31.143378 26.269876 31.880253 L 24.169501 29.790003 L 21.389626 32.569878 L 23.479876 34.670253 C 22.743001 35.771628 22.243501 36.970878 21.980251 38.270254 L 19.000125 38.270254 L 19.000125 42.220129 L 22.000501 42.220129 C 22.264876 43.517254 22.765501 44.717629 23.500126 45.820129 L 21.409876 47.910379 L 24.189751 50.70038 L 26.290126 48.61013 C 27.391501 49.34363 28.591876 49.839755 29.890126 50.09963 L 29.890126 53.100005 L 33.840002 53.100005 L 33.840002 50.09963 M 35.519627 45.159754 C 35.336252 45.295879 35.146127 45.420754 34.949252 45.535504 C 34.752377 45.650254 34.549877 45.753754 34.340627 45.844879 C 34.132502 45.937129 33.918752 46.017004 33.701627 46.085629 C 33.483377 46.153129 33.262877 46.209379 33.039002 46.252129 C 32.815127 46.296004 32.590127 46.327504 32.362877 46.345504 C 32.135627 46.363504 31.907252 46.369129 31.680002 46.362379 C 31.451627 46.355629 31.224377 46.335379 30.999377 46.302754 C 30.773252 46.270129 30.550502 46.226254 30.330002 46.168879 C 30.108376 46.111504 29.892376 46.041754 29.678626 45.959629 C 29.466001 45.878629 29.257876 45.785254 29.055376 45.680629 C 28.852876 45.576004 28.657126 45.460129 28.467001 45.334129 C 28.278001 45.207004 28.095751 45.070879 27.921376 44.923504 C 27.747001 44.777254 27.581626 44.620879 27.424126 44.455504 C 27.266626 44.290129 27.120376 44.116879 26.982001 43.934629 C 26.844751 43.752379 26.717626 43.563379 26.600626 43.367629 C 26.484751 43.171879 26.379001 42.970504 26.285626 42.762379 C 26.191126 42.554254 26.109001 42.342754 26.039251 42.125629 C 25.968376 41.908504 25.909876 41.688004 25.864876 41.465254 C 25.818751 41.241379 25.786126 41.016379 25.764751 40.789129 C 25.744501 40.561879 25.736626 40.334629 25.741126 40.106254 C 25.745626 39.879004 25.763626 39.651754 25.794001 39.425629 C 25.824376 39.199504 25.866001 38.975629 25.921126 38.754004 C 25.976251 38.533504 26.043751 38.315254 26.123626 38.101504 C 26.202376 37.887754 26.293501 37.679628 26.395876 37.476003 C 26.498251 37.272378 26.611876 37.075503 26.736751 36.884253 C 26.861626 36.693003 26.996626 36.509628 27.141751 36.334128 C 27.286876 36.157503 27.441001 35.991003 27.605251 35.832378 C 27.768376 35.673753 27.940501 35.524128 28.121626 35.384628 C 28.301626 35.245128 28.489501 35.116878 28.684126 34.997628 C 28.878751 34.879503 29.080126 34.772628 29.287126 34.675878 C 29.493001 34.580253 29.704501 34.495878 29.921626 34.422753 C 30.137627 34.350753 30.357002 34.290003 30.579752 34.242753 C 30.802502 34.194378 31.027502 34.159503 31.254752 34.135878 C 31.480877 34.113378 31.709252 34.103253 31.936502 34.105503 C 32.164877 34.107753 32.392127 34.123503 32.618252 34.150503 C 32.844377 34.178628 33.068252 34.219128 33.291002 34.272003 C 33.512627 34.324878 33.730877 34.390128 33.944627 34.466628 C 34.159502 34.544253 34.368752 34.633128 34.573502 34.733253 C 34.778252 34.834503 34.977377 34.945878 35.168627 35.068503 C 35.361002 35.191128 35.545502 35.323878 35.723252 35.467878 C 35.901002 35.610753 36.069752 35.763753 36.229502 35.925753 C 36.390377 36.087753 36.541127 36.258753 36.681752 36.437628 C 36.823502 36.616503 36.954002 36.803253 37.074377 36.996753 C 37.194752 37.190253 37.305002 37.390503 37.402877 37.595253 C 37.500752 37.801129 37.587377 38.012629 37.661627 38.227504 C 37.737002 38.443504 37.798877 38.661754 37.849502 38.884504 C 37.900127 39.107254 37.937252 39.331129 37.962002 39.558379 C 37.987877 39.784504 38.000252 40.011754 38.000252 40.240129" stroke="#FFF" stroke-width="2"/><path stroke-linecap="round" transform="scale(3.47222)" fill="none" stroke-linejoin="round" d="M 57.559504 36.689628 L 59.330254 34.920003 L 58.000504 33.600378 C 58.488754 32.908503 58.821754 32.148003 58.999504 31.320003 L 60.870379 31.320003 L 60.870379 28.820253 L 58.999504 28.820253 C 58.821754 27.988878 58.488754 27.225003 58.000504 26.529752 L 59.330254 25.210127 L 57.559504 23.440502 L 56.239879 24.770252 C 55.554754 24.309002 54.807754 23.991752 54.000004 23.819627 L 54.000004 22.000502 L 51.500253 22.000502 L 51.500253 23.870252 C 50.673378 24.035627 49.910628 24.351752 49.209753 24.819752 L 47.890128 23.490002 L 46.120503 25.259627 L 47.450253 26.580377 C 46.983378 27.281253 46.667253 28.045128 46.499628 28.869753 L 44.590503 28.869753 L 44.590503 31.369503 L 46.460253 31.369503 C 46.626753 32.191878 46.944003 32.952378 47.409753 33.649878 L 46.080003 34.969503 L 47.849628 36.740253 L 49.170378 35.419503 C 49.871253 35.885253 50.634003 36.198003 51.459753 36.360003 L 51.459753 38.229754 L 54.000004 38.229754 L 54.000004 36.310503 C 54.821254 36.146253 55.581754 35.833503 56.280379 35.370003 Z M 50.359503 32.410128 C 50.205378 32.256003 50.068128 32.088378 49.946628 31.907253 C 49.825128 31.726128 49.722753 31.534878 49.638378 31.333503 C 49.555128 31.132128 49.492128 30.924003 49.449378 30.710253 C 49.406628 30.496503 49.385253 30.280503 49.385253 30.062253 C 49.385253 29.844003 49.405503 29.628003 49.448253 29.414253 C 49.491003 29.200503 49.554003 28.992378 49.637253 28.791003 C 49.720503 28.589628 49.822878 28.398378 49.943253 28.216128 C 50.064753 28.035003 50.202003 27.867378 50.356128 27.713253 C 50.510253 27.559128 50.677878 27.420753 50.860128 27.300378 C 51.041253 27.178878 51.232503 27.076503 51.433878 26.993253 C 51.635253 26.908877 51.843379 26.845877 52.057129 26.803127 C 52.270879 26.761502 52.486879 26.740127 52.705129 26.740127 C 52.923379 26.740127 53.139379 26.761502 53.353129 26.803127 C 53.566879 26.845877 53.775004 26.908877 53.976379 26.993253 C 54.177754 27.076503 54.369004 27.178878 54.550129 27.300378 C 54.731254 27.420753 54.898879 27.559128 55.053004 27.713253 C 55.207129 27.867378 55.345504 28.035003 55.465879 28.216128 C 55.587379 28.398378 55.689754 28.589628 55.773004 28.791003 C 55.856254 28.992378 55.919254 29.200503 55.962004 29.414253 C 56.003629 29.628003 56.025004 29.844003 56.025004 30.062253 C 56.025004 30.280503 56.003629 30.496503 55.960879 30.710253 C 55.918129 30.924003 55.855129 31.132128 55.770754 31.333503 C 55.687504 31.534878 55.585129 31.726128 55.463629 31.907253 C 55.342129 32.088378 55.204879 32.256003 55.049629 32.410128 C 54.896629 32.564253 54.729004 32.702628 54.547879 32.823003 C 54.366754 32.944503 54.175504 33.046878 53.974129 33.131253 C 53.773879 33.214503 53.565754 33.277503 53.352004 33.320253 C 53.138254 33.363003 52.923379 33.384378 52.705129 33.384378 C 52.486879 33.384378 52.270879 33.363003 52.058254 33.320253 C 51.844504 33.277503 51.636378 33.214503 51.435003 33.131253 C 51.233628 33.046878 51.043503 32.944503 50.862378 32.823003 C 50.681253 32.702628 50.513628 32.564253 50.359503 32.410128 Z M 50.359503 32.410128" stroke="#FFF" stroke-width="2"/></svg>